<svg xmlns="http://www.w3.org/2000/svg" viewBox="0 0 64 64" role="img" aria-label="Dark Elf crest">
  <path d="M32 3 L57 11 V32 C57 45 47 55 32 61 C17 55 7 45 7 32 V11 Z" fill="var(--crest-team, #C2333C)" stroke="#0E0F12" stroke-width="2" stroke-linejoin="round"/>
  <path d="M10 31 V13 L32 6" fill="none" stroke="#E9E2CF" stroke-width="2" stroke-linecap="round" opacity=".55"/>
  <path d="M55 13 V32 C55 43 46 52 32 58" fill="none" stroke="var(--crest-team-dark, #7E1F27)" stroke-width="2" stroke-linecap="round"/>
  <path d="M39 15 C23 16 17 31 24 42 C29 50 40 50 47 42 C36 45 27 38 28 29 C29 22 33 18 39 15 Z" fill="#6D3D8F" stroke="#0E0F12" stroke-width="2" stroke-linejoin="round"/>
  <path d="M40 12 L44 17 L27 44 L22 48 L23 41 Z" fill="#E9E2CF" stroke="#0E0F12" stroke-width="2" stroke-linejoin="round"/>
  <path d="M21 38 L29 43" fill="none" stroke="#D9A93A" stroke-width="3" stroke-linecap="round"/>
  <circle cx="42" cy="14" r="3" fill="#8A1C1C" stroke="#0E0F12" stroke-width="1.5"/>
</svg>
