<svg xmlns="http://www.w3.org/2000/svg" viewBox="0 0 64 64" role="img" aria-label="Imperial Nobility crest">
  <path d="M32 3 L57 11 V32 C57 45 47 55 32 61 C17 55 7 45 7 32 V11 Z" fill="var(--crest-team, #C2333C)" stroke="#0E0F12" stroke-width="2" stroke-linejoin="round"/>
  <path d="M10 31 V13 L32 6" fill="none" stroke="#E9E2CF" stroke-width="2" stroke-linecap="round" opacity=".55"/>
  <path d="M55 13 V32 C55 43 46 52 32 58" fill="none" stroke="var(--crest-team-dark, #7E1F27)" stroke-width="2" stroke-linecap="round"/>
  <path d="M18 48 L42 19 M46 48 L22 19" fill="none" stroke="#D9A93A" stroke-width="4" stroke-linecap="round"/>
  <circle cx="22" cy="18" r="4" fill="#6D3D8F" stroke="#0E0F12" stroke-width="2"/>
  <circle cx="42" cy="18" r="4" fill="#6D3D8F" stroke="#0E0F12" stroke-width="2"/>
  <path d="M18 27 L23 16 L32 24 L41 16 L46 27 L42 39 H22 Z" fill="#D9A93A" stroke="#0E0F12" stroke-width="2" stroke-linejoin="round"/>
  <path d="M24 31 H40" fill="none" stroke="#8C6A1F" stroke-width="2" stroke-linecap="round"/>
  <path d="M24 39 Q32 34 40 39 V45 H24 Z" fill="#6D3D8F" stroke="#0E0F12" stroke-width="2"/>
</svg>
