<svg xmlns="http://www.w3.org/2000/svg" viewBox="0 0 64 64" role="img" aria-label="Slann crest">
  <path d="M32 3 L57 11 V32 C57 45 47 55 32 61 C17 55 7 45 7 32 V11 Z" fill="var(--crest-team, #C2333C)" stroke="#0E0F12" stroke-width="2" stroke-linejoin="round"/>
  <path d="M10 31 V13 L32 6" fill="none" stroke="#E9E2CF" stroke-width="2" stroke-linecap="round" opacity=".55"/>
  <path d="M55 13 V32 C55 43 46 52 32 58" fill="none" stroke="var(--crest-team-dark, #7E1F27)" stroke-width="2" stroke-linecap="round"/>
  <path d="M17 31 C17 19 26 16 32 22 C38 16 47 19 47 31 C47 43 40 49 32 49 C24 49 17 43 17 31 Z" fill="#5FA84B" stroke="#0E0F12" stroke-width="2"/>
  <circle cx="23" cy="23" r="7" fill="#D9A93A" stroke="#0E0F12" stroke-width="2"/>
  <circle cx="41" cy="23" r="7" fill="#D9A93A" stroke="#0E0F12" stroke-width="2"/>
  <circle cx="24" cy="24" r="3" fill="#0E0F12"/>
  <circle cx="40" cy="24" r="3" fill="#0E0F12"/>
  <path d="M23 38 Q32 45 41 38" fill="none" stroke="#0E0F12" stroke-width="3" stroke-linecap="round"/>
</svg>
